<svg xmlns="http://www.w3.org/2000/svg" width="512" height="512" viewBox="0 0 512 512" preserveAspectRatio="xMidYMid meet" version="1.1">
	<path d="M 204.098 126.737 C 200.026 135.697, 196.526 142.859, 196.320 142.653 C 196.113 142.446, 196.355 141.195, 196.858 139.873 C 198.525 135.489, 196.945 119.702, 194.701 118.315 C 194.061 117.919, 193.906 118.312, 194.299 119.336 C 194.650 120.251, 194.501 121, 193.969 121 C 193.436 121, 193 121.493, 193 122.096 C 193 124.477, 189.663 134.422, 189.260 133.244 C 188.701 131.615, 187 132.665, 187 134.638 C 187 135.474, 184.520 142.726, 181.488 150.754 C 178.377 158.993, 176.228 166.144, 176.555 167.175 C 176.880 168.196, 178.096 169.010, 179.317 169.022 C 185.907 169.088, 193.963 175.807, 196.132 183.045 C 198.269 190.178, 194.181 198.720, 187.470 201.147 C 185.561 201.837, 184 202.980, 184 203.686 C 184 204.593, 184.946 204.395, 187.217 203.014 C 188.987 201.938, 192.410 200.761, 194.824 200.399 C 197.238 200.037, 202.122 198.224, 205.679 196.371 C 209.235 194.517, 213.039 193, 214.132 193 C 215.224 193, 215.840 192.550, 215.500 192 C 215.160 191.450, 213.896 190.993, 212.691 190.985 C 211.105 190.974, 210.869 190.735, 211.837 190.122 C 212.573 189.655, 213.022 188.200, 212.834 186.887 C 212.577 185.082, 211.941 184.559, 210.229 184.741 C 208.075 184.971, 208.040 184.869, 209.504 182.634 C 210.602 180.959, 211.719 180.415, 213.401 180.736 C 215.481 181.134, 215.699 180.879, 215.258 178.568 C 214.794 176.141, 214.659 176.079, 213.410 177.725 C 212.597 178.797, 212.051 179.005, 212.032 178.250 C 212.014 177.563, 211.367 177, 210.594 177 C 209.465 177, 209.409 176.531, 210.313 174.616 C 210.980 173.202, 212.008 172.449, 212.836 172.767 C 213.980 173.206, 214.020 172.905, 213.055 171.104 C 212.205 169.515, 211.270 169.058, 209.689 169.457 C 207.523 170.005, 207.524 169.998, 209.750 168.852 C 212.144 167.620, 212.766 166, 210.845 166 C 210.154 166, 210.355 165.265, 211.345 164.171 C 214.980 160.154, 212.405 157.922, 207.743 161.049 C 204.697 163.091, 204.726 163.019, 208.219 159.862 C 211.118 157.242, 212.035 155.578, 212.375 152.323 C 212.615 150.025, 212.534 147.867, 212.194 147.528 C 211.855 147.188, 209.383 149.293, 206.700 152.205 L 201.824 157.500 206.492 151.798 C 211.728 145.404, 213.173 139.902, 210.518 136.469 C 209.512 135.168, 209.181 135.039, 209.543 136.090 C 209.844 136.964, 209.455 138.208, 208.677 138.853 C 207.485 139.843, 207.373 139.438, 207.963 136.263 C 208.348 134.193, 209.431 131.025, 210.371 129.222 C 211.651 126.768, 212.007 123.997, 211.790 118.195 L 211.500 110.445 204.098 126.737 M 360.338 122.358 C 359.204 122.986, 358.399 124.287, 358.550 125.250 C 358.867 127.281, 358.555 127.368, 355.952 125.974 C 354.469 125.180, 352.844 125.552, 348.768 127.618 C 345.870 129.087, 337.986 132.895, 331.247 136.080 C 319.540 141.614, 319.021 141.763, 319.608 139.425 C 320.190 137.106, 319.503 137.318, 306.608 143.431 C 299.121 146.980, 283.773 153.558, 272.502 158.047 L 252.010 166.211 248.255 171.848 C 245.276 176.321, 242.744 178.555, 236 182.662 C 231.325 185.509, 225.541 189.253, 223.146 190.984 C 220.752 192.714, 216.027 194.988, 212.646 196.038 C 209.266 197.088, 204.836 199.084, 202.803 200.474 C 200.633 201.957, 197.700 203, 195.702 203 C 193.830 203, 190.259 204.084, 187.768 205.409 L 183.238 207.817 182.146 205.420 C 180.691 202.229, 181.590 200.254, 184.834 199.514 C 196.509 196.850, 197.292 179.844, 186.016 173.852 C 181.038 171.206, 175.803 171.454, 172.176 174.505 C 170.539 175.883, 167.804 177.289, 166.100 177.630 C 163.855 178.079, 163 178.810, 163 180.281 C 163 181.397, 161.875 183.786, 160.500 185.589 C 159.125 187.392, 158 189.175, 158 189.551 C 158 189.928, 159.350 191.774, 161 193.653 C 163.680 196.706, 164 197.768, 164 203.621 C 164 209.238, 163.584 210.767, 161.087 214.337 C 159.485 216.626, 157.195 221.257, 155.998 224.626 C 154.006 230.235, 153.901 231.639, 154.749 241.231 C 155.530 250.054, 156.079 252.246, 158.224 255.105 C 159.625 256.972, 162.140 262.550, 163.813 267.500 C 167.555 278.570, 179.314 302.344, 185.165 310.668 C 191.748 320.034, 206.585 337.479, 215.165 345.941 C 227.245 357.855, 237.559 373.030, 249.549 396.535 C 253.818 404.904, 256.997 412.497, 257.424 415.345 C 258.212 420.595, 259.257 420.875, 262.391 416.678 C 264.555 413.779, 264.837 409.925, 263.519 401.250 C 262.566 394.976, 264.133 394.114, 266.701 399.500 C 267.619 401.425, 268.962 403, 269.685 403 C 271.759 403, 271.313 394.534, 269 390 C 267.676 387.404, 267 384.106, 267 380.240 C 267 377.028, 266.460 373.860, 265.800 373.200 C 265.140 372.540, 262.820 372, 260.645 372 C 255.250 372, 250.208 366.744, 247.666 358.470 C 244.190 347.153, 242.379 344.430, 235.164 339.677 C 231.478 337.249, 227.941 334.634, 227.304 333.866 C 226.666 333.098, 223.446 324.320, 220.146 314.360 C 215.587 300.595, 214.173 294.960, 214.254 290.875 C 214.397 283.622, 212.315 280.062, 204.444 274.104 C 200.853 271.385, 196.983 267.976, 195.844 266.528 C 193.406 263.429, 190.994 255.966, 191.015 251.591 C 191.033 248.093, 192.838 244.732, 193.643 246.700 C 194.772 249.463, 198.318 253.082, 199.116 252.284 C 199.588 251.812, 200.610 248.518, 201.387 244.963 C 202.163 241.408, 202.844 239.711, 202.900 241.191 C 202.955 242.671, 203.445 244.157, 203.989 244.493 C 204.582 244.860, 204.707 244.384, 204.301 243.302 C 203.691 241.673, 203.800 241.642, 205.439 242.977 C 207.152 244.373, 207.221 244.206, 206.683 239.977 L 206.112 235.500 207.188 239.699 C 208.068 243.138, 208.782 244.013, 211.131 244.529 C 214.565 245.283, 214.650 245.702, 211.865 248.117 C 210.111 249.638, 209.953 250.238, 210.978 251.474 C 212.330 253.102, 214.192 252.581, 213.830 250.675 C 213.482 248.833, 215.065 244.821, 217.641 241.018 C 218.939 239.103, 220.036 236.628, 220.079 235.518 C 220.137 234.023, 220.436 234.278, 221.229 236.500 C 222.432 239.871, 223.668 240.962, 226.306 240.985 C 228.223 241.001, 232.604 232.805, 232.178 230 C 232.019 228.953, 232.285 229.047, 233.059 230.311 C 233.669 231.307, 233.910 232.793, 233.595 233.613 C 233.272 234.455, 233.453 234.838, 234.011 234.493 C 234.555 234.157, 235 234.283, 235 234.773 C 235 235.263, 236.550 236.140, 238.445 236.722 C 241.290 237.595, 242.135 237.493, 243.293 236.140 C 245.565 233.484, 245.870 231.554, 244.427 228.950 C 243.681 227.602, 243.061 226.050, 243.049 225.500 C 243.036 224.950, 244.836 227.762, 247.047 231.750 C 249.259 235.738, 251.304 239, 251.593 239 C 251.882 239, 251.840 238.550, 251.500 238 C 250.734 236.761, 251.211 236.749, 254.315 237.930 C 256.587 238.793, 256.804 238.598, 257.370 235.180 C 258.375 229.100, 258.101 226.950, 255.932 223.904 C 254.794 222.307, 254.113 221, 254.418 221 C 254.722 221, 256.096 222.700, 257.471 224.777 C 259.692 228.133, 260.420 228.548, 264.007 228.500 C 266.572 228.466, 267.888 228.851, 267.617 229.556 C 267.382 230.167, 267.803 230.667, 268.551 230.667 C 270.114 230.667, 269.798 229.998, 265.637 224.500 C 263.122 221.176, 263.024 220.868, 265.055 222.676 C 266.400 223.873, 268.850 225.176, 270.500 225.572 C 272.150 225.968, 274.694 227.126, 276.154 228.146 C 277.614 229.166, 279.328 230, 279.963 230 C 280.598 230, 280.871 230.399, 280.570 230.887 C 280.269 231.374, 280.640 232.286, 281.396 232.914 C 282.490 233.822, 282.909 233.499, 283.454 231.329 C 283.927 229.443, 284.381 228.999, 284.930 229.886 C 285.563 230.911, 285.827 230.892, 286.250 229.792 C 286.540 229.035, 286.153 227.562, 285.389 226.517 C 284.625 225.472, 283.996 225.041, 283.992 225.559 C 283.982 226.779, 278.981 229.106, 277.860 228.413 C 275.952 227.234, 277.187 225.213, 280.179 224.614 L 283.357 223.979 277.929 218.911 L 272.500 213.843 278.558 218.419 C 283.777 222.360, 285.162 222.946, 288.558 222.651 C 292.132 222.341, 294.921 221.565, 297.405 220.191 C 297.902 219.916, 297.988 220.211, 297.595 220.845 C 297.203 221.480, 296.234 222, 295.441 222 C 292.997 222, 293.846 224.478, 296.910 226.288 C 301.155 228.795, 304.951 227, 304.985 222.469 C 304.996 220.966, 302.659 219.052, 296 215.110 C 291.050 212.179, 287 209.603, 287 209.384 C 287 209.166, 293.294 212.140, 300.987 215.993 C 313.950 222.487, 315.432 222.996, 321.237 222.948 L 327.500 222.896 322.250 220.878 C 319.363 219.768, 317 218.422, 317 217.886 C 317 217.351, 316.438 216.985, 315.750 217.075 C 312.702 217.470, 311.585 217.015, 312.749 215.851 C 313.614 214.986, 314.480 215.085, 316.257 216.249 C 317.894 217.322, 319.134 217.505, 320.308 216.848 C 321.511 216.174, 322.020 216.276, 322.070 217.200 C 322.109 217.915, 322.489 217.607, 322.915 216.516 C 324.262 213.068, 323.065 211.266, 318.997 210.616 C 316.891 210.279, 315.002 209.507, 314.800 208.901 C 314.598 208.295, 312.099 207.771, 309.246 207.738 C 304.904 207.687, 304.332 207.478, 305.733 206.453 C 307.176 205.398, 306.624 204.984, 301.715 203.436 C 298.585 202.450, 296.197 201.469, 296.409 201.258 C 296.621 201.046, 300.653 202.050, 305.369 203.489 C 315.671 206.631, 318.222 207.169, 317.532 206.053 C 316.997 205.186, 318.433 204.412, 323.269 202.960 C 324.792 202.503, 325.816 202.489, 325.543 202.930 C 324.779 204.167, 347.882 206.995, 350.531 205.988 C 351.776 205.515, 353.001 205.335, 353.255 205.588 C 353.508 205.841, 354.305 205.337, 355.027 204.468 C 356.120 203.151, 356.102 202.938, 354.919 203.194 C 354.139 203.362, 353.619 202.918, 353.764 202.207 C 353.967 201.214, 353.562 201.164, 352.014 201.992 C 349.938 203.103, 349.051 201.705, 351.049 200.470 C 351.774 200.021, 351.761 199.417, 351.005 198.506 C 349.763 197.009, 348.443 197.077, 345.311 198.801 C 343.859 199.600, 342.909 199.662, 342.492 198.986 C 342.145 198.426, 341.330 198.286, 340.681 198.676 C 339.925 199.129, 339.968 198.807, 340.799 197.781 C 341.513 196.899, 341.738 195.966, 341.299 195.707 C 340.859 195.448, 333.435 194.185, 324.801 192.901 C 316.166 191.616, 309.260 190.406, 309.454 190.212 C 309.648 190.018, 316.976 190.405, 325.738 191.072 C 341.542 192.275, 350.872 191.798, 347.931 189.936 C 346.934 189.305, 346.879 189.026, 347.750 189.015 C 348.438 189.007, 349 188.154, 349 187.119 C 349 185.451, 350.107 185.163, 358.750 184.576 C 368.061 183.943, 374.941 182.031, 377.813 179.276 C 378.896 178.238, 378.880 177.667, 377.723 176.015 C 376.952 174.914, 376.034 174.299, 375.684 174.649 C 375.334 175, 374.763 174.547, 374.417 173.643 C 373.587 171.480, 365.050 171.406, 360.950 173.526 C 359.328 174.365, 358 174.625, 358 174.104 C 358 173.048, 348.781 173.340, 329.418 175.007 C 316.360 176.132, 311.076 175.807, 322.216 174.565 C 325.857 174.159, 330.334 172.845, 332.860 171.441 C 336.829 169.235, 339.757 168.967, 338.550 170.920 C 338.284 171.349, 339.289 171.614, 340.783 171.507 C 342.278 171.400, 344.663 171.243, 346.083 171.157 C 347.607 171.064, 348.667 170.403, 348.667 169.544 C 348.667 168.743, 348.292 168.320, 347.833 168.603 C 347.375 168.886, 347 168.679, 347 168.142 C 347 167.606, 347.563 166.899, 348.250 166.572 C 348.938 166.245, 348.537 166.153, 347.361 166.366 C 346.184 166.580, 344.713 166.441, 344.092 166.057 C 342.295 164.946, 346.234 163.437, 362.500 159.005 C 387.324 152.241, 386.476 152.541, 386.740 150.435 C 386.971 148.594, 386.938 148.598, 386.062 150.500 C 385.235 152.294, 385.133 152.314, 385.070 150.691 C 385.032 149.696, 384.555 149.157, 384.011 149.493 C 383.445 149.843, 383.277 149.442, 383.618 148.552 C 383.946 147.698, 384.682 147, 385.253 147 C 385.824 147, 384.989 145.787, 383.396 144.304 C 381.731 142.754, 381.244 141.891, 382.250 142.273 C 383.212 142.638, 384 142.501, 384 141.969 C 384 141.436, 383.182 141, 382.182 141 C 380.465 141, 371.263 143.403, 368 144.703 C 367.175 145.032, 365.814 145.440, 364.976 145.610 C 364.137 145.780, 353.572 148.834, 341.498 152.398 C 318.474 159.194, 311.997 160.486, 328.687 154.954 C 334.084 153.165, 338.766 151.295, 339.092 150.798 C 339.417 150.301, 340.092 149.992, 340.592 150.111 C 342.228 150.502, 347 148.805, 347 147.833 C 347 147.310, 347.520 147.203, 348.155 147.595 C 348.893 148.052, 349.037 147.868, 348.553 147.086 C 348.138 146.414, 347.168 146.105, 346.399 146.400 C 345.629 146.696, 345 146.475, 345 145.910 C 345 145.344, 344.438 145.211, 343.750 145.613 C 343.063 146.015, 343.254 145.479, 344.176 144.422 C 345.098 143.365, 347.158 139.737, 348.754 136.360 C 351.260 131.058, 351.807 130.461, 352.758 131.985 C 353.393 133, 354.845 133.649, 356.180 133.512 C 357.456 133.382, 357.712 133.470, 356.750 133.707 C 355.788 133.945, 355 134.564, 355 135.083 C 355 135.602, 356.688 135.305, 358.750 134.423 C 360.813 133.540, 363.063 132.586, 363.750 132.302 C 364.438 132.018, 365.036 131.047, 365.079 130.143 C 365.129 129.096, 365.342 128.956, 365.664 129.756 C 365.943 130.447, 366.604 130.745, 367.134 130.417 C 368.668 129.469, 366.077 127.048, 364.177 127.654 C 362.958 128.042, 362.850 127.937, 363.780 127.267 C 364.818 126.519, 364.808 125.859, 363.730 123.780 C 362.583 121.570, 362.114 121.374, 360.338 122.358 M 350.242 135.984 C 348.471 138.819, 348.673 139.106, 351.526 137.806 C 352.915 137.173, 353.900 136.199, 353.713 135.640 C 353.101 133.803, 351.506 133.961, 350.242 135.984 M 361.437 150.250 L 358.500 153.500 361.750 150.563 C 364.779 147.825, 365.460 147, 364.687 147 C 364.515 147, 363.052 148.463, 361.437 150.250 M 359 165.893 C 359 166.384, 359.712 167.059, 360.582 167.393 C 363.029 168.332, 363.271 168.128, 361.643 166.500 C 359.943 164.800, 359 164.583, 359 165.893 M 216.079 177.583 C 216.127 178.748, 216.364 178.985, 216.683 178.188 C 216.972 177.466, 216.936 176.603, 216.604 176.271 C 216.272 175.939, 216.036 176.529, 216.079 177.583 M 309.813 176.683 C 310.534 176.972, 311.397 176.936, 311.729 176.604 C 312.061 176.272, 311.471 176.036, 310.417 176.079 C 309.252 176.127, 309.015 176.364, 309.813 176.683 M 366 181.393 C 366 181.609, 366.675 182.045, 367.500 182.362 C 368.325 182.678, 369 182.501, 369 181.969 C 369 181.436, 368.325 181, 367.500 181 C 366.675 181, 366 181.177, 366 181.393 M 341.250 185.689 C 342.212 185.941, 343.788 185.941, 344.750 185.689 C 345.712 185.438, 344.925 185.232, 343 185.232 C 341.075 185.232, 340.288 185.438, 341.250 185.689 M 303.750 189.662 C 304.438 189.940, 305.563 189.940, 306.250 189.662 C 306.938 189.385, 306.375 189.158, 305 189.158 C 303.625 189.158, 303.063 189.385, 303.750 189.662 M 348 199.969 C 348 200.501, 348.675 200.678, 349.500 200.362 C 350.325 200.045, 351 199.609, 351 199.393 C 351 199.177, 350.325 199, 349.500 199 C 348.675 199, 348 199.436, 348 199.969 M 368.813 200.683 C 369.534 200.972, 370.397 200.936, 370.729 200.604 C 371.061 200.272, 370.471 200.036, 369.417 200.079 C 368.252 200.127, 368.015 200.364, 368.813 200.683 M 300.551 209.339 C 298.970 210.495, 298.930 210.759, 300.261 211.270 C 301.254 211.651, 301.983 211.175, 302.308 209.931 C 302.908 207.634, 302.890 207.628, 300.551 209.339 M 332.702 216.333 C 332.421 217.067, 332.780 217.667, 333.500 217.667 C 334.220 217.667, 334.579 217.067, 334.298 216.333 C 334.016 215.600, 333.657 215, 333.500 215 C 333.343 215, 332.984 215.600, 332.702 216.333 M 133.766 222.214 C 134.023 223.196, 133.731 224, 133.117 224 C 131.499 224, 131.703 238.619, 133.473 249.530 C 135.777 263.740, 139.563 275.521, 145.995 288.500 C 160.671 318.115, 185.859 341.391, 217.260 354.354 C 220.919 355.865, 220.992 355.853, 219.963 353.932 C 219.382 352.846, 216.749 350.279, 214.112 348.229 C 211.474 346.178, 208.109 342.837, 206.633 340.805 C 205.157 338.773, 200.308 332.923, 195.858 327.805 C 186.118 316.603, 179.179 306.548, 174.442 296.767 C 172.506 292.770, 169.564 286.922, 167.905 283.770 C 166.245 280.619, 163.570 274.146, 161.961 269.386 C 160.352 264.626, 157.678 258.615, 156.018 256.028 C 153.560 252.198, 153 250.263, 153 245.603 C 153 242.457, 152.662 240.088, 152.250 240.339 C 151.139 241.016, 150.880 233.094, 151.893 229.424 C 152.391 227.620, 152.395 225.653, 151.901 224.873 C 151.234 223.820, 151.027 223.953, 151.015 225.441 C 151 227.363, 150.984 227.363, 149.426 225.441 C 148.560 224.374, 148.133 224.057, 148.478 224.739 C 148.890 225.554, 148.573 225.774, 147.552 225.382 C 146.698 225.054, 146 224.159, 146 223.393 C 146 222.627, 145.523 222, 144.941 222 C 144.359 222, 144.128 222.399, 144.430 222.886 C 144.731 223.374, 144.037 224.018, 142.888 224.319 C 141.498 224.683, 141.057 225.306, 141.571 226.183 C 141.996 226.907, 141.442 226.712, 140.341 225.748 C 139.239 224.784, 137.965 224.334, 137.509 224.748 C 137.052 225.162, 136.984 224.969, 137.356 224.319 C 137.728 223.670, 137.568 222.851, 137 222.500 C 136.432 222.149, 136.167 221.539, 136.410 221.145 C 136.654 220.751, 136.054 220.429, 135.076 220.429 C 133.863 220.429, 133.447 220.995, 133.766 222.214 M 139.510 224.016 C 139.856 224.575, 140.557 224.774, 141.069 224.457 C 142.456 223.600, 142.198 223, 140.441 223 C 139.584 223, 139.165 223.457, 139.510 224.016 M 287.500 225 C 287.840 225.550, 288.568 226, 289.118 226 C 289.668 226, 289.840 225.550, 289.500 225 C 289.160 224.450, 288.432 224, 287.882 224 C 287.332 224, 287.160 224.450, 287.500 225 M 310 228 C 310 228.550, 309.325 229, 308.500 229 C 306.574 229, 306.552 230.614, 308.468 231.349 C 309.937 231.913, 311.277 230.601, 311.633 228.250 C 311.738 227.563, 311.413 227, 310.912 227 C 310.410 227, 310 227.450, 310 228 M 262.606 232.152 C 263.648 233.611, 264.700 234.611, 264.944 234.374 C 265.189 234.138, 264.337 232.944, 263.050 231.722 L 260.712 229.500 262.606 232.152 M 289.599 233.396 C 289.893 234.164, 289.207 235.442, 288.074 236.236 C 286.940 237.030, 286.310 237.977, 286.673 238.340 C 287.819 239.486, 289.146 239.054, 288.485 237.750 C 288.137 237.063, 288.503 237.296, 289.299 238.268 C 290.660 239.930, 290.851 239.876, 292.506 237.351 C 294.190 234.781, 294.187 234.610, 292.441 233.333 C 290.084 231.610, 288.923 231.635, 289.599 233.396 M 252.500 268.683 C 243.673 271.114, 239.378 281.642, 243.827 289.938 C 247.297 296.408, 257.054 298.967, 264.599 295.386 C 268.321 293.620, 268.699 292.825, 266.635 291.112 C 265.605 290.257, 264.561 290.348, 262.385 291.483 C 257.620 293.968, 254.200 293.400, 250.272 289.472 C 247.060 286.260, 246.795 285.566, 247.310 281.724 C 248.053 276.186, 251.625 273, 257.091 273 C 259.280 273, 262.147 273.706, 263.464 274.568 C 265.697 276.031, 265.930 276, 266.945 274.102 C 267.852 272.407, 267.645 271.814, 265.702 270.540 C 263.146 268.866, 255.660 267.812, 252.500 268.683 M 378.400 269.428 C 375.032 270.894, 374 272.653, 374 276.927 C 374 280.502, 376.445 282.631, 383.006 284.771 C 389.057 286.744, 391.094 288.977, 389.070 291.416 C 387.417 293.407, 383 293.445, 378.362 291.507 C 374.534 289.907, 373 290.223, 373 292.610 C 373 294.739, 379.095 297, 384.833 297 C 391.200 297, 395 294.241, 395 289.619 C 395 284.993, 393.353 283.376, 386 280.780 C 380.353 278.786, 379.500 278.158, 379.500 275.992 C 379.500 273.823, 379.998 273.459, 383.342 273.184 C 385.455 273.010, 388.458 273.313, 390.015 273.855 C 392.255 274.636, 392.967 274.529, 393.423 273.339 C 394.417 270.748, 394.102 270.347, 390.134 269.158 C 385.191 267.677, 382.267 267.745, 378.400 269.428 M 229 283 L 229 297 231.500 297 L 234 297 234 283 L 234 269 231.500 269 L 229 269 229 283 M 278.520 281.750 C 275.348 288.762, 272.536 295.063, 272.270 295.750 C 271.963 296.544, 272.690 297, 274.261 297 C 276.453 297, 277.286 295.742, 281.545 286 C 284.190 279.950, 286.675 275, 287.068 275 C 287.677 275, 288.650 277.042, 291.717 284.750 C 292.066 285.628, 290.991 286, 288.107 286 C 285.848 286, 284 286.413, 284 286.918 C 284 287.423, 283.755 288.474, 283.456 289.254 C 283.015 290.404, 283.953 290.586, 288.415 290.216 C 293.911 289.760, 293.920 289.764, 295.644 293.380 C 296.894 296, 298.010 297, 299.685 297 C 300.958 297, 302 296.754, 302 296.454 C 302 296.154, 299.241 289.854, 295.870 282.454 C 290.182 269.971, 289.543 269, 287.014 269 C 284.489 269, 283.860 269.945, 278.520 281.750 M 308.056 283.071 L 307.914 297.141 310.707 296.821 C 313.292 296.524, 313.494 296.184, 313.414 292.250 L 313.327 288 317.414 288.002 C 321.168 288.003, 321.731 288.369, 324.342 292.502 C 326.426 295.801, 327.826 297, 329.592 297 C 332.627 297, 332.607 296.357, 329.423 291.672 L 326.847 287.881 329.423 285.304 C 331.374 283.354, 331.992 281.727, 331.968 278.614 C 331.910 271.130, 328.519 269, 316.664 269 L 308.197 269 308.056 283.071 M 340.172 279.250 C 340.726 293.485, 343.394 297, 353.647 297 C 357.452 297, 358.735 296.465, 361.454 293.746 C 364.085 291.115, 364.848 289.376, 365.436 284.663 C 365.837 281.456, 365.860 276.621, 365.489 273.917 C 364.948 269.984, 364.431 269, 362.906 269 C 361.200 269, 360.994 269.814, 360.944 276.750 C 360.849 289.763, 357.802 294.422, 350.575 292.608 C 346.735 291.644, 345 286.796, 345 277.032 C 345 269.038, 344.988 269, 342.387 269 L 339.773 269 340.172 279.250 M 313 278.500 L 313 284 318.066 284 C 324.975 284, 327 282.753, 327 278.500 C 327 274.247, 324.975 273, 318.066 273 L 313 273 313 278.500 M 220.544 307.099 C 220.970 308.419, 222.798 314.404, 224.607 320.397 C 226.415 326.391, 228.335 331.735, 228.874 332.274 C 229.412 332.812, 232.683 335.108, 236.142 337.376 C 243.603 342.268, 246.316 345.989, 249.004 355.015 L 251.003 361.725 259.251 362.388 C 280.188 364.070, 306.278 358.169, 328 346.839 C 337.101 342.092, 351.611 332.277, 350.770 331.436 C 350.549 331.215, 348.822 331.536, 346.934 332.150 C 345.045 332.764, 335.850 333.338, 326.500 333.426 C 317.150 333.514, 307.025 333.905, 304 334.296 L 298.500 335.006 305.408 332.910 C 309.208 331.757, 316.858 329.730, 322.408 328.406 L 332.500 325.998 323.500 326.590 C 318.550 326.916, 303.925 327.336, 291 327.523 C 278.075 327.710, 264.800 328.091, 261.500 328.370 L 255.500 328.877 260 327.443 C 262.475 326.655, 271.230 324.640, 279.455 322.967 C 287.680 321.293, 294.653 319.680, 294.951 319.382 C 295.249 319.085, 288.069 319.156, 278.996 319.540 C 260.638 320.318, 256.796 319.729, 249.325 314.991 C 246.803 313.392, 242.768 311.788, 240.358 311.426 C 237.947 311.065, 235.759 310.419, 235.494 309.990 C 235.229 309.561, 239.172 308.538, 244.256 307.715 L 253.500 306.220 238.332 306.110 C 229.989 306.049, 222.400 305.707, 221.466 305.349 C 220.050 304.805, 219.898 305.095, 220.544 307.099" stroke="none" fill="#3b82f6" fill-rule="evenodd"/>
</svg>